<?xml version="1.0" encoding="utf-8"?>
<!-- Generator: Adobe Illustrator 15.0.0, SVG Export Plug-In . SVG Version: 6.00 Build 0)  -->
<!DOCTYPE svg PUBLIC "-//W3C//DTD SVG 1.1//EN" "http://www.w3.org/Graphics/SVG/1.1/DTD/svg11.dtd">
<svg version="1.1"
	 id="Calque_1" xmlns:cc="http://creativecommons.org/ns#" xmlns:rdf="http://www.w3.org/1999/02/22-rdf-syntax-ns#" xmlns:dc="http://purl.org/dc/elements/1.1/"
	 xmlns="http://www.w3.org/2000/svg" xmlns:xlink="http://www.w3.org/1999/xlink" x="0px" y="0px" width="26.313px" height="26.5px"
	 viewBox="-0.377 -0.496 26.313 26.5" enable-background="new -0.377 -0.496 26.313 26.5" xml:space="preserve">
<g transform="translate(-343.99 -487.77)">
	
		<linearGradient id="SVGID_1_" gradientUnits="userSpaceOnUse" x1="732.4275" y1="-186.5593" x2="751.1671" y2="-187.9793" gradientTransform="matrix(1.1028 0.1018 0.0919 -1.1549 -442.0585 209.7142)">
		<stop  offset="0" style="stop-color:#FFCC00"/>
		<stop  offset="1" style="stop-color:#FFFFFF"/>
	</linearGradient>
	
		<path fill="url(#SVGID_1_)" stroke="#784421" stroke-width="1.699" stroke-linecap="round" stroke-linejoin="round" stroke-opacity="0.7442" d="
		M364.198,512.69c-0.644,0.48-6.671-4.898-7.462-4.907s-6.883,5.228-7.52,4.732c-0.637-0.494,2.355-8.138,2.115-8.929
		s-6.904-5.267-6.655-6.053c0.25-0.785,8.126-0.131,8.769-0.61c0.643-0.479,2.617-8.482,3.408-8.473
		c0.791,0.009,2.667,8.057,3.305,8.551c0.637,0.495,8.521,0.024,8.76,0.815c0.24,0.791-6.477,5.11-6.727,5.896
		C361.942,504.498,364.842,512.21,364.198,512.69L364.198,512.69z"/>
</g>
</svg>
