<?xml version="1.0" encoding="utf-8"?>
<!-- Generator: Adobe Illustrator 15.0.0, SVG Export Plug-In . SVG Version: 6.00 Build 0)  -->
<!DOCTYPE svg PUBLIC "-//W3C//DTD SVG 1.1//EN" "http://www.w3.org/Graphics/SVG/1.1/DTD/svg11.dtd">
<svg version="1.1" id="Calque_1" xmlns="http://www.w3.org/2000/svg" xmlns:xlink="http://www.w3.org/1999/xlink" x="0px" y="0px"
	 width="105.334px" height="173.667px" viewBox="0 0 105.334 173.667" enable-background="new 0 0 105.334 173.667"
	 xml:space="preserve">
<path opacity="0.3" d="M100.088,172.667l-48.044-64.355L4,172.667V38.334c0-21,15-36,36-36h24c22,0,36,15,36.088,36V172.667z"/>
<g>
	<path fill="#EC619F" d="M48.044,95.948L6,152.267V36C6,18.336,18.336,6,36,6h24c18.201,0,30.012,11.786,30.088,30.025v116.242
		L48.044,95.948z"/>
	<linearGradient id="SVGID_1_" gradientUnits="userSpaceOnUse" x1="48.0435" y1="7.9038" x2="48.0435" y2="67.2327">
		<stop  offset="0" style="stop-color:#E7EDB7;stop-opacity:0.59"/>
		<stop  offset="0.3748" style="stop-color:#E5EBB4;stop-opacity:0.3689"/>
		<stop  offset="0.7045" style="stop-color:#DFE8AB;stop-opacity:0.1744"/>
		<stop  offset="1" style="stop-color:#D6E39C;stop-opacity:0"/>
	</linearGradient>
	<path opacity="0.35" fill="url(#SVGID_1_)" d="M48.044,95.948L6,152.267V36C6,18.336,18.336,6,36,6h24
		c18.201,0,30.012,11.786,30.088,30.025v116.242L48.044,95.948z"/>
	<path fill="#431B2D" d="M60,12c14.789,0,24.017,9.206,24.088,24.028v98.171l-26.428-35.4l-9.616-12.881l-9.616,12.881L12,134.199
		V36c0-14.355,9.645-24,24-24H60 M60,0H36C15,0,0,15,0,36v134.333l48.044-64.355l48.044,64.355V36C96,15,82,0,60,0L60,0z"/>
</g>
</svg>
